<?xml version="1.0" standalone="no"?>
<!DOCTYPE svg PUBLIC "-//W3C//DTD SVG 20010904//EN"
 "http://www.w3.org/TR/2001/REC-SVG-20010904/DTD/svg10.dtd">
<svg version="1.0" xmlns="http://www.w3.org/2000/svg"
 width="408.000000pt" height="408.000000pt" viewBox="0 0 408.000000 408.000000"
 preserveAspectRatio="xMidYMid meet">
<metadata>
Created by potrace 1.16, written by Peter Selinger 2001-2019
</metadata>
<g transform="translate(0.000000,408.000000) scale(0.100000,-0.100000)"
fill="#000000" stroke="none">
<path d="M0 2040 l0 -2040 2040 0 2040 0 0 2040 0 2040 -2040 0 -2040 0 0
-2040z m1833 1758 c3 -39 3 -77 -1 -84 -4 -7 -28 -31 -55 -54 -44 -40 -49 -41
-70 -27 -12 8 -31 29 -41 47 l-19 33 26 -7 c39 -10 77 9 77 38 0 14 -4 28 -10
31 -5 3 -10 26 -10 51 l0 44 49 0 48 0 6 -72z m517 28 c0 -25 -4 -48 -10 -51
-5 -3 -10 -17 -10 -31 0 -28 37 -48 74 -38 21 5 22 9 18 85 l-4 79 46 0 46 0
0 -45 0 -45 40 0 40 0 0 -40 0 -40 45 0 45 0 0 -46 0 -46 -79 4 c-76 4 -80 3
-85 -18 -10 -37 10 -74 38 -74 14 0 28 5 31 10 3 6 26 10 51 10 l44 0 0 -54 0
-53 -72 -6 c-84 -7 -101 0 -129 55 -27 53 -134 160 -188 187 -52 27 -60 49
-54 134 l6 67 53 0 54 0 0 -44z m-738 -239 c15 -11 30 -27 33 -35 7 -18 -69
-118 -95 -125 -10 -3 -48 -2 -84 0 l-66 6 0 53 0 54 44 0 c25 0 48 -4 51 -10
3 -5 17 -10 31 -10 29 0 47 38 38 77 -7 28 -4 28 48 -10z m-320 -1469 l2 -53
3 53 4 52 49 0 48 0 4 -187 c2 -104 8 -196 12 -205 9 -19 66 -21 66 -2 0 28
78 24 105 -6 22 -24 31 -86 15 -105 -21 -25 -43 -19 -36 9 3 14 2 36 -4 50
-16 43 -80 30 -80 -16 0 -36 25 -98 40 -98 11 -1 10 -4 -5 -16 -19 -16 -19
-16 9 -11 18 3 35 -1 43 -9 23 -23 77 -18 88 9 8 18 18 22 53 21 57 -1 85 -28
85 -83 0 -23 3 -41 7 -41 4 0 5 -15 1 -32 -6 -30 -10 -33 -46 -35 -22 -1 -32
1 -23 3 14 4 15 10 8 30 -7 17 -6 24 3 24 8 0 8 3 -2 9 -9 6 -10 11 -2 15 22
14 12 56 -15 66 -42 16 -74 3 -74 -31 0 -22 -5 -29 -20 -29 -11 0 -20 7 -20
15 0 21 -18 19 -23 -2 -3 -10 -5 -3 -6 15 0 17 -6 32 -12 32 -8 0 -10 -12 -6
-36 l6 -36 -35 4 c-33 4 -36 2 -65 -52 -16 -31 -42 -63 -57 -72 -27 -16 -129
-121 -169 -175 -13 -17 -39 -34 -63 -42 -34 -10 -40 -15 -35 -32 14 -44 0 -54
-85 -57 l-80 -3 0 46 0 45 -45 0 -45 0 0 85 0 85 -40 0 -40 0 0 85 0 85 -45 0
-45 0 0 340 0 340 285 0 285 0 2 -52z m938 -1303 c25 -13 30 -22 30 -50 0 -32
2 -34 19 -23 17 10 23 9 40 -6 20 -18 21 -30 21 -273 l0 -253 -300 0 -300 0 0
253 c0 243 1 255 21 273 17 15 23 16 40 6 17 -11 19 -9 19 23 0 56 26 64 218
65 127 0 169 -3 192 -15z"/>
</g>
</svg>
